<?xml version="1.0" standalone="no"?><svg xmlns="http://www.w3.org/2000/svg" viewBox="0 0 1440 320"><path fill="#3df2ff" fill-opacity="1" d="M0,160L21.8,160C43.6,160,87,160,131,176C174.5,192,218,224,262,213.3C305.5,203,349,149,393,128C436.4,107,480,117,524,106.7C567.3,96,611,64,655,80C698.2,96,742,160,785,192C829.1,224,873,224,916,229.3C960,235,1004,245,1047,213.3C1090.9,181,1135,107,1178,112C1221.8,117,1265,203,1309,224C1352.7,245,1396,203,1418,181.3L1440,160L1440,0L1418.2,0C1396.4,0,1353,0,1309,0C1265.5,0,1222,0,1178,0C1134.5,0,1091,0,1047,0C1003.6,0,960,0,916,0C872.7,0,829,0,785,0C741.8,0,698,0,655,0C610.9,0,567,0,524,0C480,0,436,0,393,0C349.1,0,305,0,262,0C218.2,0,175,0,131,0C87.3,0,44,0,22,0L0,0Z"></path></svg>